<?xml version="1.0" encoding="UTF-8" standalone="no"?>
<!DOCTYPE svg PUBLIC "-//W3C//DTD SVG 1.1//EN" "http://www.w3.org/Graphics/SVG/1.1/DTD/svg11.dtd">
<svg width="100%" height="100%" viewBox="0 0 245 1086" version="1.1" xmlns="http://www.w3.org/2000/svg" xmlns:xlink="http://www.w3.org/1999/xlink" xml:space="preserve" xmlns:serif="http://www.serif.com/" style="fill-rule:evenodd;clip-rule:evenodd;stroke-linecap:square;stroke-linejoin:round;stroke-miterlimit:1.5;">
    <g transform="matrix(1,0,0,1,-841.809,-3237.17)">
        <g transform="matrix(1,0,0,7.4002,0,0)">
            <g transform="matrix(6.12323e-17,-0.135131,1,8.27442e-18,-2847.84,632.845)">
                <path d="M1443.18,3807.84C1443.18,3807.84 1311.75,3808.4 1248.72,3792.41C1173.39,3773.3 1047.09,3698.54 991.191,3693.17C932.883,3687.57 920.206,3717.54 920.206,3717.54C920.206,3717.54 920.013,3717.94 921.263,3734.1C925.548,3757.06 933.063,3751.8 933.717,3750.3C938.436,3739.49 912.984,3732 913.607,3744.89C913.971,3752.41 933.012,3762.65 934.083,3768.2C934.357,3769.62 931.853,3773.17 914.316,3768.2C920.603,3771.51 933.138,3775.12 933.306,3784.03C933.411,3789.61 916.154,3785.34 914.708,3784.98C916.534,3785.91 937.937,3796.8 933.169,3802.73C929.061,3807.83 912.868,3798.05 912.236,3803.73C911.042,3814.48 932.143,3823.53 934.083,3824.49C930.807,3823.66 927.174,3823.3 889.11,3814.18C924.688,3825.25 933.756,3822.58 928.987,3835.13C927.992,3837.75 911.096,3840.8 912.236,3820.67C912.071,3822.63 912.543,3838.77 923.891,3846.63C941.255,3858.64 942.285,3856.12 962.899,3859.79C952.5,3858.53 947.109,3855.36 948.114,3866C948.059,3864.22 947.68,3851.81 947.769,3843.69C947.801,3850.03 948.018,3849.86 947.16,3856.04C931.769,3853.14 905.613,3851.96 914.316,3858.76C920.415,3863.53 957.466,3879.76 917.926,3869.82C916.414,3869.44 913.476,3870.27 915.184,3873.93C917.643,3879.21 931.15,3885.71 933.169,3886.48C894.867,3883.89 887.682,3870.7 889.11,3868.03C894,3858.9 916.883,3879.26 920.206,3902.11L920.206,3914.08C920.206,3914.08 926.403,3959.04 828.918,3902.11C782.01,3874.72 739.562,3828.01 687.071,3820.67C512.974,3796.32 363.18,3807.84 363.18,3807.84" style="fill:none;stroke:rgb(42,79,90);stroke-width:4px;"/>
            </g>
        </g>
    </g>
</svg>
